# xmcd CD database file
#
# Track frame offsets:
#	150
#	22602
#	34263
#	47350
#	63056
#	80306
#	102591
#	118484
#	133150
#	147013
#	169032
#	182879
#	196503
#	220630
#	242694
#	261856
#
# Disc length: 3705 seconds
#
# Revision: 0
# Processed by: cddbd v1.5.2PL0 Copyright (c) Steve Scherf et al.
# Submitted via: CDex 1.70beta2
#
DISCID=d30e7710
DTITLE=Various Artist - Reflexion - Visiones de Cuba
DYEAR=1900
DGENRE=Salsa
TTITLE0=Polo Montañéz - Un Monton de Estrellas
TTITLE1=Alvaro Carrillo - Sabor A Mi
TTITLE2=Isolina Carrillo - Dos Gardenias
TTITLE3=Maria Teresa Vera - Veinte Años
TTITLE4=Luis Bonfa - Black Orpheus
TTITLE5=Miguel Matamoros - Lagrimas Negras
TTITLE6=Piloto y Vera - Añorado Encuentro
TTITLE7=Consuelo Velasquez - Besame Mucho
TTITLE8=Ernesto Duarte - Como Fue
TTITLE9=Bob Marley - I Shot The Sheriff
TTITLE10=Cesar Portillo de La Cruz - Contigo En La Distancia
TTITLE11=Osvaldo Farres - Tres Palabras
TTITLE12=Vicente Ford - No Woman No Cry
TTITLE13=Silvio Rodriguez - La Gota del Rocio
TTITLE14=Antonio Carlos Jobim - The Girl From Ipanema
TTITLE15=Herbie Hancock - Cantaloupe Island
EXTD=
EXTT0=
EXTT1=
EXTT2=
EXTT3=
EXTT4=
EXTT5=
EXTT6=
EXTT7=
EXTT8=
EXTT9=
EXTT10=
EXTT11=
EXTT12=
EXTT13=
EXTT14=
EXTT15=
PLAYORDER=
